REM DIRINDEX 1\2\4,1\2\5,1\2\6,1\3\7,1\3\8,1\3\9,1\3\10
REM DIRNAME folder01,folder02,folder03,folder04,folder05,folder06,folder07,folder08,folder09,folder10
TITLE ""
FILE "b_25.mp3" MP3
  TRACK 01 AUDIO
    TITLE "0:"
    INDEX 01 00:00:00
  TRACK 02 AUDIO
    TITLE "10:cjc058_2819"
    INDEX 01 00:00:13
  TRACK 03 AUDIO
    TITLE "0:"
    INDEX 01 00:03:49
  TRACK 04 AUDIO
    TITLE "7:cjc058_2820"
    INDEX 01 00:04:19
  TRACK 05 AUDIO
    TITLE "0:"
    INDEX 01 00:05:38
  TRACK 06 AUDIO
    TITLE "8:cjc058_2821"
    INDEX 01 00:05:71
  TRACK 07 AUDIO
    TITLE "0:"
    INDEX 01 00:07:72
  TRACK 08 AUDIO
    TITLE "9:cjc058_2822"
    INDEX 01 00:08:40
  TRACK 09 AUDIO
    TITLE "0:"
    INDEX 01 00:11:01
  TRACK 10 AUDIO
    TITLE "7:cjc058_2823"
    INDEX 01 00:12:07
  TRACK 11 AUDIO
    TITLE "0:"
    INDEX 01 00:13:41
  TRACK 12 AUDIO
    TITLE "8:cjc058_2824"
    INDEX 01 00:13:73
  TRACK 13 AUDIO
    TITLE "0:"
    INDEX 01 00:17:35
  TRACK 14 AUDIO
    TITLE "9:cjc058_2825"
    INDEX 01 00:18:05
  TRACK 15 AUDIO
    TITLE "0:"
    INDEX 01 00:21:17
  TRACK 16 AUDIO
    TITLE "7:cjc058_2826"
    INDEX 01 00:22:25
  TRACK 17 AUDIO
    TITLE "0:"
    INDEX 01 00:23:51
  TRACK 18 AUDIO
    TITLE "8:cjc058_2827"
    INDEX 01 00:24:08
  TRACK 19 AUDIO
    TITLE "0:"
    INDEX 01 00:26:28
  TRACK 20 AUDIO
    TITLE "9:cjc058_2828"
    INDEX 01 00:26:71
  TRACK 21 AUDIO
    TITLE "0:"
    INDEX 01 00:29:23
  TRACK 22 AUDIO
    TITLE "7:cjc058_2829"
    INDEX 01 00:30:30
  TRACK 23 AUDIO
    TITLE "0:"
    INDEX 01 00:31:57
  TRACK 24 AUDIO
    TITLE "8:cjc058_2830"
    INDEX 01 00:32:13
  TRACK 25 AUDIO
    TITLE "0:"
    INDEX 01 00:35:02
  TRACK 26 AUDIO
    TITLE "9:cjc058_2831"
    INDEX 01 00:35:45
  TRACK 27 AUDIO
    TITLE "0:"
    INDEX 01 00:39:33
  TRACK 28 AUDIO
    TITLE "7:cjc058_2832"
    INDEX 01 00:40:38
  TRACK 29 AUDIO
    TITLE "0:"
    INDEX 01 00:42:14
  TRACK 30 AUDIO
    TITLE "8:cjc058_2833"
    INDEX 01 00:42:47
  TRACK 31 AUDIO
    TITLE "0:"
    INDEX 01 00:45:69
  TRACK 32 AUDIO
    TITLE "9:cjc058_2834"
    INDEX 01 00:46:33
  TRACK 33 AUDIO
    TITLE "0:"
    INDEX 01 00:49:21
  TRACK 34 AUDIO
    TITLE "7:cjc058_2835"
    INDEX 01 00:50:27
  TRACK 35 AUDIO
    TITLE "0:"
    INDEX 01 00:51:73
  TRACK 36 AUDIO
    TITLE "8:cjc058_2836"
    INDEX 01 00:52:28
  TRACK 37 AUDIO
    TITLE "0:"
    INDEX 01 00:53:72
  TRACK 38 AUDIO
    TITLE "9:cjc058_2837"
    INDEX 01 00:54:38
  TRACK 39 AUDIO
    TITLE "0:"
    INDEX 01 00:56:59
  TRACK 40 AUDIO
    TITLE "7:cjc058_2838"
    INDEX 01 00:57:68
  TRACK 41 AUDIO
    TITLE "0:"
    INDEX 01 00:59:08
  TRACK 42 AUDIO
    TITLE "8:cjc058_2839"
    INDEX 01 00:59:39
  TRACK 43 AUDIO
    TITLE "0:"
    INDEX 01 01:01:01
  TRACK 44 AUDIO
    TITLE "9:cjc058_2840"
    INDEX 01 01:01:40
  TRACK 45 AUDIO
    TITLE "0:"
    INDEX 01 01:04:39
  TRACK 46 AUDIO
    TITLE "7:cjc058_2841"
    INDEX 01 01:05:46
  TRACK 47 AUDIO
    TITLE "0:"
    INDEX 01 01:07:08
  TRACK 48 AUDIO
    TITLE "8:cjc058_2842"
    INDEX 01 01:07:41
  TRACK 49 AUDIO
    TITLE "0:"
    INDEX 01 01:10:65
  TRACK 50 AUDIO
    TITLE "9:cjc058_2843"
    INDEX 01 01:11:35
  TRACK 51 AUDIO
    TITLE "0:"
    INDEX 01 01:14:57
  TRACK 52 AUDIO
    TITLE "7:cjc058_2844"
    INDEX 01 01:15:64
  TRACK 53 AUDIO
    TITLE "0:"
    INDEX 01 01:17:06
  TRACK 54 AUDIO
    TITLE "8:cjc058_2845"
    INDEX 01 01:17:35
  TRACK 55 AUDIO
    TITLE "0:"
    INDEX 01 01:18:72
  TRACK 56 AUDIO
    TITLE "9:cjc058_2846"
    INDEX 01 01:19:38
  TRACK 57 AUDIO
    TITLE "0:"
    INDEX 01 01:22:29
  TRACK 58 AUDIO
    TITLE "7:cjc058_2847"
    INDEX 01 01:23:38
  TRACK 59 AUDIO
    TITLE "0:"
    INDEX 01 01:24:65
  TRACK 60 AUDIO
    TITLE "8:cjc058_2848"
    INDEX 01 01:25:23
  TRACK 61 AUDIO
    TITLE "0:"
    INDEX 01 01:28:04
  TRACK 62 AUDIO
    TITLE "9:cjc058_2849"
    INDEX 01 01:28:51
  TRACK 63 AUDIO
    TITLE "0:"
    INDEX 01 01:31:67
  TRACK 64 AUDIO
    TITLE "7:cjc058_2850"
    INDEX 01 01:32:72
  TRACK 65 AUDIO
    TITLE "0:"
    INDEX 01 01:34:12
  TRACK 66 AUDIO
    TITLE "8:cjc058_2851"
    INDEX 01 01:34:42
  TRACK 67 AUDIO
    TITLE "0:"
    INDEX 01 01:37:44
  TRACK 68 AUDIO
    TITLE "9:cjc058_2852"
    INDEX 01 01:38:12
  TRACK 69 AUDIO
    TITLE "0:"
    INDEX 01 01:42:00
  TRACK 70 AUDIO
    TITLE "7:cjc058_2853"
    INDEX 01 01:43:05
  TRACK 71 AUDIO
    TITLE "0:"
    INDEX 01 01:44:38
  TRACK 72 AUDIO
    TITLE "8:cjc058_2854"
    INDEX 01 01:44:66
  TRACK 73 AUDIO
    TITLE "0:"
    INDEX 01 01:48:28
  TRACK 74 AUDIO
    TITLE "9:cjc058_2855"
    INDEX 01 01:48:71
  TRACK 75 AUDIO
    TITLE "0:"
    INDEX 01 01:51:30
